<svg xmlns="http://www.w3.org/2000/svg" viewBox="0 0 960 640" role="img" aria-label="Ảnh minh họa: ô tô tự lái trên đường">
  <!-- AI WIKI TOTAL — minh họa editorial: ô tô -->
  <rect width="960" height="640" fill="#F4F1E8"/>
  <rect y="500" width="960" height="140" fill="#FFFFFF"/>
  <line x1="0" y1="500" x2="960" y2="500" stroke="#172033" stroke-width="3"/>
  <line x1="60" y1="580" x2="900" y2="580" stroke="#172033" stroke-width="6" stroke-dasharray="44 30"/>
  <!-- thân xe -->
  <path d="M120 440 C 130 350 190 300 300 290 L 640 290 C 730 290 800 330 830 400 L 850 440 Z" fill="#FFFFFF" stroke="#172033" stroke-width="6"/>
  <path d="M180 300 C 250 240 380 230 470 232 L 470 290 Z" fill="#3157D5"/>
  <path d="M500 232 C 590 232 680 254 720 292 L 500 292 Z" fill="#3157D5"/>
  <path d="M196 296 C 252 248 368 240 452 242 L 452 290 L 202 290 Z" fill="#26449F"/>
  <path d="M506 242 C 580 244 660 262 700 296 L 506 296 Z" fill="#26449F"/>
  <rect x="120" y="404" width="730" height="40" rx="14" fill="#3157D5" opacity="0.9"/>
  <circle cx="250" cy="452" r="52" fill="#172033"/>
  <circle cx="250" cy="452" r="22" fill="#F4F1E8"/>
  <circle cx="250" cy="452" r="8" fill="#3157D5"/>
  <circle cx="720" cy="452" r="52" fill="#172033"/>
  <circle cx="720" cy="452" r="22" fill="#F4F1E8"/>
  <circle cx="720" cy="452" r="8" fill="#3157D5"/>
  <rect x="850" y="392" width="40" height="14" rx="7" fill="#F59E0B"/>
  <rect x="88" y="392" width="34" height="14" rx="7" fill="#F59E0B"/>
  <!-- gps pin -->
  <path d="M840 150 c -44 0 -74 32 -74 70 c 0 52 74 128 74 128 c 0 0 74 -76 74 -128 c 0 -38 -30 -70 -74 -70 Z" fill="#3157D5"/>
  <circle cx="840" cy="220" r="26" fill="#F4F1E8"/>
  <circle cx="840" cy="220" r="10" fill="#172033"/>
  <circle cx="120" cy="140" r="12" fill="#F59E0B" opacity="0.7"/>
  <circle cx="170" cy="100" r="7" fill="#3157D5" opacity="0.5"/>
</svg>
